<svg width="500" height="383" viewBox="0 0 500 383" fill="none" xmlns="http://www.w3.org/2000/svg">
<g clip-path="url(#clip0_3_17)">
<path d="M466.172 329.543L467.027 310.326C475.937 305.564 485.874 303.048 495.977 302.998C482.073 314.365 483.81 336.278 474.384 351.565C471.407 356.31 467.401 360.325 462.662 363.311C457.923 366.297 452.572 368.179 447.007 368.817L435.372 375.941C433.775 367.04 434.127 357.899 436.404 349.148C438.68 340.396 442.826 332.242 448.557 325.248C451.811 321.356 455.543 317.889 459.663 314.929C462.45 322.277 466.172 329.543 466.172 329.543Z" fill="#F2F2F2"/>
<path d="M289.731 380.725C283.804 380.303 282.259 381.472 273.292 380.725H256.854L258.993 341.386L284.871 351.756L413.473 354.913L413.397 355.131C413.339 355.299 407.629 372.001 412.092 378.325L412.277 378.587L411.916 378.59L293.944 379.672C292.656 379.684 291.008 380.816 289.731 380.725Z" fill="#F2F2F2"/>
<path d="M296.401 381.239C284.953 380.424 273.099 384.875 263.205 379.85L255.296 380.329L255.274 380.263C255.213 380.081 251.477 350.685 259.029 339.287L259.362 338.786L259.621 341.485L257.132 378.104L262.65 376.262C276.052 382.57 291.992 378.404 307.331 378.346L411.724 377.96C413.911 377.953 415.733 379.447 415.791 381.292L415.797 381.472L302.706 381.463C300.597 381.463 298.496 381.388 296.401 381.239Z" fill="#CCCCCC"/>
<path d="M406.222 362.847L288.744 360.512L288.623 360.467L260.867 350.065L261.392 348.665L289.028 359.023L406.252 361.352L406.222 362.847Z" fill="#E6E6E6"/>
<path d="M405.595 369.137L288.117 366.802L287.997 366.758L260.241 356.355L260.765 354.956L288.402 365.314L405.625 367.643L405.595 369.137Z" fill="#E6E6E6"/>
<path d="M404.968 375.429L287.49 373.093L287.37 373.048L259.614 362.645L260.138 361.246L287.775 371.605L404.998 373.934L404.968 375.429Z" fill="#E6E6E6"/>
<path d="M297.212 355.319C286.32 354.583 275.7 351.587 266.03 346.521L257.887 342.202L258.1 340.067C258.159 339.754 258.332 339.473 258.586 339.28C258.839 339.087 259.155 338.994 259.473 339.019L260.192 339.028L369.751 340.641C376.922 340.73 384.027 342.019 390.772 344.456L414.643 353.122L414.63 353.248C414.43 355.26 412.401 356.814 410.012 356.786L302.093 355.522C300.461 355.502 298.834 355.435 297.212 355.319Z" fill="#E6E6E6"/>
<path d="M414.413 353.585L414.389 353.583L283.007 350.573L282.916 350.531L259.229 339.561L259.469 339.195L260.189 339.203L283.227 349.878L413.39 352.858L414.433 352.882L414.413 353.585Z" fill="#CCCCCC"/>
<path d="M312.276 339.971L310.608 339.947L272.956 339.391L271.172 339.366C279.775 348.525 298.797 350.816 326.679 347.268L312.276 339.971Z" fill="#CCCCCC"/>
<path d="M418.136 120.906L420.433 126.249L416.679 145.224L378.382 139.899L378.688 116.761L379.457 111.693L418.136 120.906Z" fill="#FFB6B6"/>
<path d="M437.923 366.827H429.474L425.452 334.238H437.923V366.827Z" fill="#FFB6B6"/>
<path d="M412.79 377.857C412.791 378.814 413.172 379.732 413.849 380.409C414.525 381.085 415.443 381.466 416.4 381.467H432.474L435.245 375.747L436.321 381.467H442.38L440.677 361.037L437.923 360.876L428.67 360.325L427.178 360.232V366.019L414.349 374.883C413.868 375.215 413.475 375.66 413.204 376.178C412.932 376.696 412.79 377.272 412.79 377.857Z" fill="#2F2E41"/>
<path d="M359.828 329.468H351.379L346.409 281.488L362.284 280.54L359.828 329.468Z" fill="#FFB6B6"/>
<path d="M334.695 340.497C334.696 341.455 335.076 342.372 335.753 343.049C336.43 343.726 337.348 344.106 338.305 344.107H354.379L357.15 338.388L358.226 344.107H364.285L362.582 323.677L360.124 323.533L350.71 322.966L349.083 322.872V328.66L336.254 337.523C335.773 337.856 335.38 338.3 335.108 338.818C334.837 339.336 334.695 339.913 334.695 340.497Z" fill="#2F2E41"/>
<path d="M441.509 338.724H441.476L439.851 285.734C440.903 283.706 441.437 281.449 441.405 279.164C441.373 276.88 440.777 274.639 439.67 272.64L439.437 272.219L440.04 269.423C440.815 265.831 440.459 262.086 439.022 258.704L437.506 209.275C442.922 174.176 417.112 151.286 417.112 151.286L419.485 132.89L377.739 133.839L378.449 151.286L370.148 179.805C365.78 222.365 336.38 249.115 340.849 289.814C340.858 289.931 340.84 290.049 340.798 290.158C340.344 291.537 340.185 292.995 340.329 294.439C340.474 295.884 340.919 297.281 341.637 298.543C341.823 298.865 341.951 299.217 342.015 299.583C342.935 306.718 343.055 297.693 344.275 304.765L344.038 304.885C343.183 305.18 342.817 306.364 343.219 307.53C343.621 308.695 344.64 309.401 345.495 309.106L367.811 309.345C368.666 309.05 369.033 307.865 368.63 306.7C368.228 305.534 367.209 304.828 366.354 305.123L364.966 305.826L367.289 298.226L368.103 297.466C368.493 297.102 368.796 296.654 368.988 296.156C369.181 295.659 369.258 295.124 369.215 294.592C369.172 294.06 369.009 293.545 368.738 293.085C368.468 292.625 368.097 292.232 367.653 291.936L369.967 279.586L369.638 270.247L370.315 259.651L399.596 217.221L411.443 275.829L423.544 339.313C423.262 339.568 423.05 339.891 422.928 340.251C422.807 340.611 422.78 340.997 422.85 341.37C422.961 341.892 423.251 342.359 423.669 342.691C424.087 343.023 424.607 343.199 425.141 343.189H441.568C441.913 343.189 442.252 343.109 442.561 342.956C442.869 342.803 443.138 342.581 443.347 342.307C443.555 342.032 443.698 341.714 443.763 341.376C443.828 341.037 443.815 340.689 443.723 340.357C443.584 339.879 443.293 339.461 442.892 339.166C442.492 338.87 442.006 338.715 441.509 338.724Z" fill="#2F2E41"/>
<path d="M426.901 30.7396C426.902 34.1227 426.073 37.4545 424.486 40.4424C422.899 43.4302 420.602 45.9829 417.799 47.8761C414.995 49.7694 411.769 50.9455 408.405 51.3011C405.04 51.6568 401.64 51.181 398.502 49.9158C395.365 48.6505 392.586 46.6343 390.409 44.0442C388.232 41.4542 386.725 38.3694 386.019 35.0607C385.313 31.752 385.43 28.3206 386.359 25.0677C387.289 21.8147 389.003 18.8398 391.351 16.4039L391.45 16.3048C391.616 16.1311 391.781 15.9575 391.954 15.7921C391.956 15.7921 391.957 15.7919 391.958 15.7915C391.959 15.7911 391.96 15.7905 391.96 15.7897C391.961 15.7889 391.962 15.788 391.962 15.787C391.963 15.786 391.963 15.7849 391.963 15.7838C392.2 15.6108 392.419 15.4141 392.616 15.1969C395.406 11.298 398.569 8.0287 406.232 10.0711C417.264 13.0116 426.901 19.3223 426.901 30.7396Z" fill="#2F2E41"/>
<path d="M313.365 21.8916C313.318 22.9974 313.514 24.1001 313.939 25.1218C314.365 26.1436 315.009 27.0597 315.827 27.8056C316.644 28.5515 317.616 29.109 318.672 29.4388C319.729 29.7687 320.845 29.8629 321.942 29.7148L375.244 73.4601L383.386 59.1499L328.431 20.6495C328.06 18.8233 327.032 17.1967 325.542 16.0778C324.052 14.9588 322.203 14.4254 320.346 14.5785C318.489 14.7316 316.752 15.5607 315.466 16.9085C314.179 18.2564 313.431 20.0294 313.365 21.8917V21.8916Z" fill="#FFB6B6"/>
<path d="M397.751 86.3611C397.751 86.3611 397.735 84.7856 389.261 84.8462C378.743 84.9214 349.776 69.8209 352.31 55.5994C351.107 56.143 349.757 56.271 348.473 55.9631C347.189 55.6551 346.045 54.9289 345.219 53.8987L359.321 40.3211C363.746 40.62 363.792 43.5811 363.413 45.2815L374.746 49.785L404.265 66.744L399.052 83.779L397.751 86.3611Z" fill="#6C63FF"/>
<path d="M401.14 52.853C410.712 52.853 418.471 45.0935 418.471 35.5216C418.471 25.9498 410.712 18.1903 401.14 18.1903C391.568 18.1903 383.809 25.9498 383.809 35.5216C383.809 45.0935 391.568 52.853 401.14 52.853Z" fill="#FFB7B7"/>
<path d="M377.32 121.726C376.363 123.004 375.874 124.572 375.936 126.167C375.997 127.762 376.606 129.288 377.659 130.488C377.667 130.996 377.744 131.488 378.464 133.309C378.558 133.486 378.669 133.653 378.794 133.809C378.818 133.847 378.843 133.884 378.871 133.919C379.629 134.901 380.684 135.611 381.879 135.945L413.604 144.8L417.798 145.969L418.535 146.172L418.942 140.444C419.885 139.662 420.518 138.568 420.724 137.361C420.931 136.153 420.699 134.911 420.069 133.86L419.484 132.894L422.891 123.734L423.221 122.828L431.907 99.449L431.915 97.8898L431.932 96.2799L432.017 85.0439C432.021 81.5026 431.204 78.0086 429.631 74.836C428.058 71.6633 425.771 68.8983 422.95 66.7579C420.381 64.7944 417.418 63.4072 414.265 62.6906L414.197 62.6821L410.765 58.064L396.843 59.4537L395.691 61.8178L394.292 64.6649L384.2 70.6727L380.752 78.6887L378.421 84.1118C374.812 86.7047 372.659 90.0349 372.041 94.0005C370.719 102.423 376.617 110.854 377.32 111.82L377.498 121.489L377.32 121.726Z" fill="#6C63FF"/>
<path d="M419.278 40.0652C419.121 40.0403 418.964 40.0072 418.807 39.9824C416.103 39.5029 413.4 39.0317 410.705 38.5439L410.457 32.4344L407.191 37.9073C399.742 40.3792 392.773 38.9821 386.217 35.8984C384.054 34.8718 381.956 33.715 379.934 32.4344C379.268 22.1018 383.445 15.487 391.219 16.1807C391.503 16.2061 391.706 15.9162 391.954 15.7921C391.956 15.7921 391.957 15.7919 391.958 15.7915C391.959 15.7911 391.96 15.7905 391.96 15.7897C391.961 15.7889 391.962 15.788 391.962 15.787C391.962 15.786 391.963 15.7849 391.963 15.7838C392.384 15.5854 392.814 15.3953 393.244 15.2217C396.61 13.9064 400.28 13.5733 403.827 14.2611C407.375 14.9489 410.654 16.6295 413.284 19.1073C418.575 24.1588 420.956 32.5005 419.278 40.0652Z" fill="#2F2E41"/>
<path d="M418.807 39.9824C418.807 39.9824 413.673 20.8187 391.665 16.3956C391.64 16.3874 391.558 16.3543 391.45 16.3048C391.384 16.2634 391.301 16.222 391.219 16.1808C391.467 16.0402 391.706 15.9162 391.954 15.7921C391.956 15.7921 391.957 15.7919 391.958 15.7915C391.959 15.7911 391.96 15.7905 391.96 15.7897C391.961 15.7889 391.962 15.788 391.962 15.787C391.963 15.786 391.963 15.7849 391.963 15.7838C392.178 15.5854 392.393 15.387 392.616 15.1969L393.244 15.2217C393.244 15.2217 415.326 11.7246 418.807 39.9824Z" fill="#FD6584"/>
<path d="M427.273 160.786C426.866 161.135 426.37 161.364 425.841 161.45C425.312 161.536 424.769 161.474 424.273 161.272C423.285 160.853 422.407 160.211 421.708 159.396C418.857 156.406 416.821 152.735 415.792 148.733L416.743 147.042C416.369 144.956 416.721 142.806 417.738 140.947C418.755 139.088 420.378 137.633 422.336 136.824C423.45 136.351 424.685 136.244 425.864 136.517C426.449 136.662 426.983 136.963 427.411 137.387C427.839 137.81 428.145 138.342 428.296 138.925C428.662 140.735 427.155 142.368 425.629 143.407C422.969 145.212 419.896 146.312 416.695 146.603C420.61 148.81 423.994 151.847 426.61 155.501C427.214 156.263 427.66 157.139 427.921 158.076C428.047 158.546 428.053 159.04 427.94 159.513C427.827 159.986 427.598 160.424 427.273 160.786Z" fill="#2F2E41"/>
<path d="M208.202 382.082H499.068C499.315 382.082 499.552 381.984 499.727 381.809C499.902 381.634 500 381.397 500 381.15C500 380.903 499.902 380.666 499.727 380.491C499.552 380.316 499.315 380.218 499.068 380.218H208.202C207.955 380.218 207.718 380.316 207.543 380.491C207.368 380.666 207.27 380.903 207.27 381.15C207.27 381.397 207.368 381.634 207.543 381.809C207.718 381.984 207.955 382.082 208.202 382.082Z" fill="#CCCCCC"/>
<path d="M285.45 142.541V143.027C284.402 141.8 283.333 140.583 282.275 139.366C281.83 138.858 281.386 138.35 280.941 137.842C279.057 135.704 277.163 133.573 275.258 131.449C273.343 129.333 271.427 127.216 269.49 125.11C269.025 124.602 268.559 124.094 268.083 123.586C267.702 123.159 267.288 122.763 266.844 122.401C266.397 122.029 265.884 121.745 265.331 121.565C264.695 121.388 264.024 121.381 263.384 121.544C262.653 121.713 261.955 121.977 261.246 122.2C260.516 122.443 259.796 122.676 259.066 122.909C257.605 123.385 256.155 123.861 254.695 124.338C254.677 124.345 254.658 124.348 254.639 124.348C254.62 124.348 254.602 124.344 254.584 124.337C254.567 124.329 254.551 124.319 254.537 124.305C254.524 124.292 254.513 124.276 254.506 124.258L254.504 124.253C254.496 124.233 254.492 124.211 254.493 124.189C254.494 124.168 254.5 124.147 254.51 124.127C254.52 124.108 254.534 124.091 254.552 124.078C254.569 124.065 254.589 124.056 254.61 124.052C254.97 123.935 255.34 123.819 255.711 123.702C257.182 123.216 258.642 122.739 260.114 122.263C260.844 122.02 261.574 121.787 262.304 121.554C262.982 121.297 263.697 121.154 264.421 121.131C265.603 121.216 266.712 121.736 267.532 122.591C267.987 123.015 268.4 123.459 268.813 123.914C269.3 124.443 269.787 124.972 270.274 125.502C272.231 127.64 274.175 129.784 276.105 131.936C278.042 134.095 279.961 136.258 281.862 138.424C282 138.583 282.137 138.741 282.275 138.9C283.344 140.106 284.392 141.324 285.45 142.541Z" fill="white"/>
<path d="M266.68 124.351C266.28 123.836 265.747 123.44 265.139 123.205L264.537 123.226C269.261 130.577 275.449 136.874 282.716 141.725C277.37 135.934 272.025 130.142 266.68 124.351Z" fill="white"/>
<path d="M365.257 200.736L341.281 72.3617C340.871 70.2455 339.754 68.3314 338.113 66.9334C336.472 65.5353 334.405 64.7362 332.251 64.667C332.057 64.6627 331.863 64.6627 331.669 64.667L315.336 65.2529L313.579 65.3176L305.427 65.6105L303.67 65.6709L298.426 65.8604L192.701 69.656C192.542 69.6646 192.378 69.6646 192.218 69.6603L168.527 69.1649L159.76 68.9839L159.48 68.9796L153.009 68.8418L96.6217 67.6699L81.6719 67.3554L74.3004 67.2046L72.534 67.1658L64.1286 66.9934L62.3665 66.9547L53.7671 66.778L52.005 66.7393L42.5569 66.5411L41.0749 66.5109L32.6478 66.3343L31.3166 66.3084H31.1227C28.8855 66.3175 26.7236 67.1173 25.0191 68.5664C23.3146 70.0155 22.1773 72.0205 21.8082 74.2271L0.12455 207.44C-0.0956459 208.789 -0.0198351 210.17 0.346714 211.487C0.713262 212.805 1.36177 214.026 2.24736 215.068C3.13295 216.11 4.23442 216.947 5.47547 217.52C6.71652 218.094 8.06749 218.391 9.43476 218.391H133.962C135.794 218.396 137.578 218.985 139.054 220.071L141.415 221.821C143.042 223.018 145.008 223.667 147.029 223.673C171.079 217.325 196.366 217.325 220.416 223.673C221.656 223.676 222.884 223.434 224.03 222.959C225.176 222.484 226.216 221.787 227.09 220.907C228.585 219.413 230.58 218.524 232.691 218.413L356.476 211.89C357.819 211.82 359.131 211.464 360.324 210.845C361.518 210.227 362.565 209.361 363.396 208.304C364.228 207.248 364.824 206.027 365.145 204.721C365.466 203.416 365.504 202.057 365.257 200.736V200.736Z" fill="#CCCCCC"/>
<path d="M331.334 180.717C331.175 185.067 329.295 189.177 326.108 192.141C322.92 195.106 318.686 196.684 314.335 196.528C307.147 196.274 298.57 196.147 289.26 196.341C258.857 196.991 220.66 201.175 197.684 216.224C194.797 218.119 191.384 219.055 187.934 218.898C187.679 218.884 187.433 218.869 187.179 218.846C183.601 218.519 180.23 217.025 177.585 214.595C164.928 203.013 135.899 188.989 69.4518 188.002C69.1754 188.002 68.9063 187.987 68.6374 187.972C66.4852 187.837 64.3808 187.279 62.4445 186.33C60.5082 185.38 58.778 184.059 57.3527 182.441C55.9274 180.823 54.8349 178.939 54.1379 176.899C53.4408 174.858 53.1527 172.7 53.2901 170.548L59.8205 66.9054L60.7994 51.3713L62.5179 24.1961C62.6912 21.4593 63.8999 18.8912 65.8983 17.0135C67.8968 15.1357 70.5352 14.0892 73.2774 14.0866H73.3447L112.931 14.3182C129.608 15.0729 143.421 17.1974 154.37 20.6918C158.11 21.8515 161.748 23.3159 165.249 25.0703C170.03 27.3883 174.326 30.5962 177.906 34.5223C180.136 37.0303 183.179 38.673 186.499 39.1623C187.014 39.2392 187.533 39.2866 188.053 39.3043C191.115 39.431 194.137 38.5662 196.668 36.8385C222.528 19.5112 275.228 18.1962 304.331 18.9434C308.401 19.0383 312.29 20.6449 315.24 23.4502C318.19 26.2555 319.991 30.0587 320.291 34.1188L321.471 49.5781L322.644 64.9926L329.414 154.08L331.297 178.864C331.343 179.481 331.355 180.099 331.334 180.717Z" fill="#F2F2F2"/>
<path d="M79.3001 50.5568C103.156 42.9457 129.77 44.9607 152.37 55.6831C158.818 58.7266 164.908 62.4776 170.527 66.8668C172.117 68.1144 174.379 65.8827 172.772 64.6217C152.015 48.5216 125.933 40.8732 99.7683 43.2134C92.5296 43.8612 85.3832 45.2969 78.456 47.4952C76.5168 48.1139 77.3456 51.1803 79.3 50.5568H79.3001Z" fill="#3F3D56"/>
<path d="M210.569 68.0984C232.749 56.4406 259.308 53.8984 283.423 60.5159C290.298 62.398 296.942 65.0397 303.232 68.3921C305.034 69.3537 306.64 66.614 304.835 65.6507C281.851 53.3869 254.262 50.5637 229.164 57.4001C222.162 59.3106 215.39 61.9786 208.967 65.3569C207.157 66.3079 208.76 69.0492 210.569 68.0984Z" fill="#3F3D56"/>
<path d="M210.569 89.2649C232.749 77.6071 259.308 75.065 283.423 81.6824C290.298 83.5645 296.942 86.2062 303.232 89.5587C305.034 90.5203 306.64 87.7805 304.835 86.8172C281.851 74.5534 254.262 71.7302 229.164 78.5666C222.162 80.4771 215.39 83.1451 208.967 86.5234C207.157 87.4744 208.76 90.2157 210.569 89.2649L210.569 89.2649Z" fill="#3F3D56"/>
<path d="M305.612 109.296C305.628 109.023 305.563 108.752 305.423 108.518C305.284 108.283 305.077 108.096 304.829 107.98C286.417 98.339 265.541 94.4287 244.888 96.7524C244.759 96.7627 244.64 96.7835 244.5 96.7938H244.495C244.367 96.8052 244.241 96.8243 244.116 96.8509C231.832 98.2644 219.915 101.937 208.967 107.685C208.728 107.827 208.531 108.029 208.394 108.27C208.257 108.512 208.185 108.785 208.185 109.063V148.549C208.189 148.792 208.248 149.03 208.358 149.247C208.468 149.464 208.625 149.653 208.819 149.8C209.013 149.946 209.237 150.047 209.476 150.094C209.714 150.142 209.96 150.134 210.195 150.072C210.682 149.932 211.169 149.797 211.667 149.668C222.735 146.672 234.097 144.894 245.551 144.367C245.795 144.357 246.039 144.347 246.292 144.336C255.622 143.936 264.968 144.272 274.245 145.341C274.439 145.352 274.633 145.373 274.825 145.404C275.302 145.455 275.789 145.512 276.265 145.575C276.457 145.595 276.638 145.616 276.815 145.647C278.669 145.88 280.509 146.144 282.353 146.429C285.016 146.854 287.679 147.327 290.343 147.849C290.508 147.88 290.679 147.922 290.85 147.953C295.125 148.802 299.379 149.787 303.612 150.875C303.847 150.936 304.094 150.942 304.332 150.894C304.571 150.846 304.796 150.744 304.989 150.596C305.183 150.449 305.34 150.259 305.45 150.042C305.559 149.824 305.618 149.585 305.622 149.341V109.358C305.624 109.337 305.62 109.316 305.612 109.296Z" fill="#3F3D56"/>
<path d="M247.377 98.9055C246.214 98.3357 244.881 98.2186 243.636 98.5768C243.087 98.7829 242.583 99.0962 242.155 99.4985C241.728 99.9008 241.384 100.384 241.145 100.92C240.713 101.948 240.437 103.035 240.324 104.144C240.259 104.58 240.255 105.13 240.693 105.334C240.852 105.392 241.024 105.405 241.19 105.372C241.356 105.339 241.51 105.262 241.635 105.148C241.862 104.924 242.049 104.664 242.187 104.378C242.949 103.193 243.996 102.219 245.234 101.547C246.471 100.874 247.858 100.524 249.266 100.529L250.438 100.996C249.516 100.166 248.486 99.4625 247.377 98.9055Z" fill="#FF6582"/>
<path d="M260.064 108.006C259.154 106.667 258.076 105.237 256.388 104.8C254.433 104.294 252.425 105.3 250.722 106.292C245.656 109.242 240.751 112.459 236.027 115.929L236.032 115.981L246.998 115.308C249.638 115.146 252.37 114.962 254.704 113.85C255.542 113.324 256.478 112.976 257.456 112.825C258.062 112.858 258.656 113.01 259.204 113.274C259.751 113.538 260.24 113.907 260.644 114.361C265.698 119.151 267.16 126.476 272.829 130.684C269.222 122.778 264.951 115.192 260.064 108.006Z" fill="white"/>
<path d="M246.294 144.336C246.04 144.346 245.797 144.357 245.553 144.367C243.786 143.732 241.976 143.171 240.145 142.684C238.96 142.367 237.754 142.081 236.547 141.838C235.182 141.542 233.806 141.309 232.43 141.108C229.811 140.727 227.171 140.504 224.524 140.441C224.504 140.443 224.484 140.441 224.465 140.435C224.446 140.429 224.428 140.419 224.413 140.405C224.398 140.392 224.386 140.375 224.378 140.357C224.37 140.338 224.365 140.318 224.365 140.298C224.365 140.278 224.37 140.258 224.378 140.24C224.386 140.221 224.398 140.205 224.413 140.191C224.428 140.178 224.446 140.168 224.465 140.161C224.484 140.155 224.504 140.153 224.524 140.155C224.863 140.155 225.202 140.166 225.53 140.187C228.182 140.285 230.825 140.543 233.446 140.96C234.811 141.182 236.177 141.446 237.531 141.743C238.759 142.018 239.987 142.325 241.193 142.663C242.918 143.15 244.618 143.708 246.294 144.336Z" fill="white"/>
<path d="M276.816 145.648C276.637 145.616 276.456 145.595 276.266 145.574C275.536 144.971 274.795 144.399 274.022 143.838C273.059 143.14 272.064 142.484 271.048 141.87C268.798 140.504 266.449 139.308 264.021 138.293C260.182 136.694 256.208 135.44 252.147 134.546C247.514 133.531 242.824 132.796 238.103 132.345C233.383 131.858 228.641 131.562 223.9 131.265C223.699 131.255 223.688 130.958 223.9 130.969C224.493 131.011 225.085 131.043 225.689 131.085C230.483 131.382 235.277 131.72 240.039 132.26C244.762 132.766 249.446 133.579 254.062 134.694C258.003 135.665 261.85 136.987 265.556 138.642C267.687 139.599 269.752 140.699 271.736 141.933C272.996 142.727 274.213 143.574 275.377 144.473C275.864 144.854 276.351 145.235 276.816 145.648Z" fill="white"/>
<path d="M274.827 145.404C274.634 145.373 274.44 145.352 274.245 145.341C274.022 145.161 273.789 144.992 273.557 144.822C271.928 143.656 270.227 142.592 268.466 141.637C266.867 140.768 265.224 139.98 263.545 139.277C259.707 137.673 255.733 136.419 251.67 135.53C247.038 134.515 242.348 133.78 237.626 133.329C232.906 132.842 228.165 132.546 223.424 132.25C223.223 132.228 223.223 131.943 223.424 131.953C224.027 131.996 224.62 132.027 225.212 132.07C230.007 132.366 234.801 132.705 239.563 133.244C244.285 133.75 248.97 134.564 253.586 135.679C257.528 136.648 261.374 137.969 265.079 139.626C266.476 140.261 267.842 140.949 269.175 141.7C271.153 142.786 273.042 144.025 274.827 145.404Z" fill="white"/>
<path d="M290.85 147.955C290.681 147.923 290.511 147.881 290.342 147.849C290.151 147.648 289.971 147.437 289.791 147.225C288.881 146.177 287.982 145.119 287.093 144.05C283.59 139.88 280.266 135.583 277.134 131.202C274.446 127.455 271.895 123.635 269.482 119.74C268.329 117.899 267.217 116.036 266.127 114.152C265.281 112.692 264.455 111.228 263.651 109.76C263.418 109.337 263.196 108.913 262.974 108.49C262.455 107.495 261.936 106.49 261.386 105.506C260.788 104.3 259.909 103.255 258.825 102.458C258.283 102.095 257.655 101.879 257.004 101.833C256.087 101.837 255.184 102.069 254.38 102.51C248.459 105.268 242.873 108.694 237.732 112.723C232.711 116.629 228.171 121.115 224.207 126.09C224.08 126.238 223.805 126.101 223.921 125.942C224.397 125.349 224.884 124.756 225.371 124.174C229.181 119.668 233.472 115.59 238.166 112.014C238.177 112.004 238.198 111.993 238.209 111.983C238.621 111.654 239.034 111.337 239.457 111.03C242.078 109.1 244.806 107.319 247.628 105.696C249.067 104.86 250.538 104.066 252.041 103.315C252.411 103.124 252.792 102.934 253.173 102.754C253.554 102.563 253.935 102.384 254.316 102.204C255.07 101.819 255.895 101.592 256.74 101.537C259.682 101.495 261.195 104.458 262.243 106.458C262.571 107.083 262.91 107.707 263.238 108.331C264.508 110.691 265.831 113.041 267.207 115.359C268.043 116.798 268.911 118.227 269.789 119.645C271.048 121.666 272.34 123.666 273.684 125.656C273.684 125.658 273.684 125.659 273.684 125.66C273.685 125.661 273.686 125.663 273.687 125.664C273.688 125.665 273.689 125.665 273.69 125.666C273.691 125.667 273.692 125.667 273.694 125.667H273.694C275.25 128.016 276.869 130.323 278.542 132.62C281.41 136.546 284.415 140.385 287.558 144.135C288.638 145.426 289.735 146.699 290.85 147.955Z" fill="white"/>
<path d="M253.092 101.214L252.799 101.342C252.129 100.21 251.189 99.2608 250.063 98.5793C248.937 97.8977 247.66 97.5048 246.346 97.4356C242.013 97.1278 238.207 100.015 237.861 103.872C237.721 105.46 238.18 107.043 239.15 108.309L238.878 108.469C237.869 107.151 237.39 105.503 237.536 103.849C237.896 99.8327 241.86 96.8256 246.372 97.1462C247.741 97.2183 249.07 97.6274 250.242 98.3371C251.415 99.0468 252.394 100.035 253.092 101.214Z" fill="#FF6582"/>
<path d="M231.682 109.017C230.545 108.522 229.306 108.306 228.069 108.384C226.831 108.463 225.63 108.835 224.565 109.47C228.454 110.067 232.309 110.868 236.114 111.869C234.538 111.047 233.306 109.76 231.682 109.017Z" fill="white"/>
<path d="M224.543 109.467L224.115 109.776C224.26 109.668 224.41 109.566 224.565 109.47L224.543 109.467Z" fill="white"/>
<path d="M237.439 111.263C237.268 111.094 237.099 110.925 236.927 110.755C235.609 109.322 234.023 108.161 232.258 107.339C231.359 106.96 230.395 106.761 229.42 106.753C228.413 106.777 227.417 106.97 226.474 107.325C226.03 107.483 225.596 107.662 225.169 107.853C224.681 108.071 224.201 108.305 223.724 108.54C222.828 108.981 221.944 109.442 221.071 109.922C219.334 110.877 217.652 111.905 216.025 113.006C215.181 113.577 214.355 114.167 213.546 114.776C212.793 115.341 212.056 115.921 211.334 116.517C211.18 116.643 210.949 116.438 211.104 116.312C211.294 116.154 211.486 115.997 211.679 115.842C212.222 115.405 212.775 114.976 213.336 114.555C214.359 113.786 215.408 113.048 216.485 112.339C218.158 111.235 219.889 110.207 221.678 109.253C222.571 108.777 223.477 108.321 224.396 107.885C224.673 107.753 224.954 107.624 225.237 107.502C225.886 107.212 226.554 106.97 227.238 106.778C228.219 106.496 229.245 106.407 230.26 106.513C231.231 106.637 232.174 106.928 233.048 107.372C234.778 108.342 236.339 109.586 237.67 111.057C237.809 111.197 237.579 111.403 237.439 111.263Z" fill="white"/>
<path d="M79.3001 71.7233C103.156 64.1122 129.77 66.1272 152.37 76.8496C158.818 79.8931 164.908 83.6441 170.527 88.0333C172.117 89.2809 174.379 87.0492 172.772 85.7882C152.015 69.6881 125.933 62.0397 99.7683 64.38C92.5296 65.0277 85.3832 66.4634 78.456 68.6617C76.5168 69.2804 77.3456 72.3468 79.3 71.7233L79.3001 71.7233Z" fill="#3F3D56"/>
<path d="M79.3001 92.8898C103.156 85.2787 129.77 87.2937 152.37 98.0161C158.818 101.06 164.908 104.811 170.527 109.2C172.117 110.447 174.379 108.216 172.772 106.955C152.015 90.8546 125.933 83.2063 99.7683 85.5465C92.5296 86.1942 85.3832 87.63 78.456 89.8282C76.5168 90.4469 77.3456 93.5133 79.3 92.8898L79.3001 92.8898Z" fill="#3F3D56"/>
<path d="M79.3001 114.056C103.156 106.445 129.77 108.46 152.37 119.183C158.818 122.226 164.908 125.977 170.527 130.366C172.117 131.614 174.379 129.382 172.772 128.121C152.015 112.021 125.933 104.373 99.7683 106.713C92.5296 107.361 85.3832 108.797 78.456 110.995C76.5168 111.613 77.3456 114.68 79.3 114.056L79.3001 114.056Z" fill="#3F3D56"/>
<path d="M79.3001 135.223C103.156 127.612 129.77 129.627 152.37 140.349C158.818 143.393 164.908 147.144 170.527 151.533C172.117 152.78 174.379 150.549 172.772 149.288C152.015 133.188 125.933 125.539 99.7683 127.88C92.5296 128.527 85.3832 129.963 78.456 132.161C76.5168 132.78 77.3456 135.846 79.3 135.223L79.3001 135.223Z" fill="#3F3D56"/>
<path d="M79.3001 156.389C103.156 148.778 129.77 150.793 152.37 161.516C158.818 164.559 164.908 168.31 170.527 172.699C172.117 173.947 174.379 171.715 172.772 170.454C152.015 154.354 125.933 146.706 99.7683 149.046C92.5296 149.694 85.3832 151.13 78.456 153.328C76.5168 153.947 77.3456 157.013 79.3 156.389H79.3001Z" fill="#3F3D56"/>
<path d="M165.249 25.0703V75.8268C165.249 76.8355 163.485 77.6798 161.109 77.9114C161.089 77.9102 161.069 77.9128 161.05 77.9189C160.654 77.9488 160.235 77.9712 159.809 77.9712C158.499 77.9953 157.196 77.7827 155.961 77.3436C155.849 77.2988 155.737 77.2465 155.625 77.2016C155.52 77.1418 155.408 77.0895 155.304 77.0298C154.714 76.6786 154.37 76.2676 154.37 75.8268V20.6917C158.11 21.8515 161.748 23.3159 165.249 25.0703Z" fill="#6C63FF"/>
<path d="M188.052 36.8425H186.497V217.837H188.052V36.8425Z" fill="#E6E6E6"/>
<path d="M357.082 160.746C358.184 160.645 359.251 160.304 360.207 159.746C361.163 159.189 361.985 158.428 362.615 157.518C363.246 156.609 363.669 155.572 363.855 154.481C364.041 153.39 363.986 152.271 363.693 151.204L395.955 136.144L415.378 104.725L400.111 98.5615L387.008 123.88L353.845 145.979C352.084 146.59 350.609 147.825 349.698 149.451C348.788 151.077 348.505 152.98 348.904 154.8C349.303 156.621 350.356 158.231 351.863 159.327C353.371 160.423 355.227 160.928 357.082 160.746V160.746Z" fill="#FFB6B6"/>
<path d="M427.359 74.6272C427.359 74.6272 431.161 75.8683 426.988 83.2432C423.647 89.1474 407.373 123.156 400.73 129.834C401.429 130.954 401.736 132.274 401.601 133.588C401.467 134.901 400.9 136.132 399.989 137.088L384.654 124.919C384.361 120.493 387.29 120.054 389.026 120.203L392.553 107.7L404.858 76.8573L424.627 73.6813L427.359 74.6272Z" fill="#6C63FF"/>
<path d="M427.69 16.8179C428.415 13.8865 433.675 11.7221 424.665 7.62949C422.479 6.63626 422.569 3.21578 420.72 1.68397C418.87 0.15216 416.161 -0.558007 414.012 0.51267C412.092 1.46878 411.01 3.63249 410.779 5.76474C410.669 7.9108 410.917 10.0603 411.513 12.1249L411.338 12.3801C414.907 15.1111 418.476 17.8421 422.045 20.5731C423.356 21.5767 425.071 22.6275 426.541 21.8745C428.205 21.022 427.242 18.6328 427.69 16.8179Z" fill="#2F2E41"/>
</g>
<defs>
<clipPath id="clip0_3_17">
<rect width="500" height="382.283" fill="white"/>
</clipPath>
</defs>
</svg>
